<svg width="1114" height="134" viewBox="0 0 1114 134" fill="none" xmlns="http://www.w3.org/2000/svg">
<path d="M2 131C7.54692 131.555 12.8761 132.677 18.5556 131.556C23.3965 130.599 26.7086 127.914 31 126.778C36.5695 125.304 42.4067 126.328 48.1111 125.778C49.3076 125.662 52.6962 124.181 52.9444 126.167C53.0909 127.338 52.2027 130.853 54.1111 130.444C56.3846 129.957 58.5755 130 60.8889 130C68.496 130 75.9202 128.198 83.2222 126.222C89.3784 124.557 96.7913 121.691 103.333 123.222C107.073 124.097 102.596 130.727 107.778 129C111.46 127.773 115.194 126.404 119.111 126.167C122.5 125.961 121.472 128.375 123.056 130.222C123.394 130.617 127.423 127.24 127.889 127C130.082 125.871 133.384 124.111 135.944 124.111C137.562 124.111 138.531 125.538 139.444 126.667C142.573 130.531 143.928 130.823 149 130C165.442 127.334 182.332 123.267 197.444 117.222C199.707 116.317 201 115.638 201 119C201 122.808 205.467 122.644 208.556 122.778C237.884 124.044 266.725 108.734 292.333 96.4444C309.7 88.1103 325.89 78.0594 341.222 66.3889C348.003 61.227 360.714 53.7817 364.333 45.5556C367.062 39.3538 361.538 38.1516 356.444 39.5C337.497 44.5155 332.468 64.1789 325.111 79.6667C322.579 84.9974 302.675 110.209 312.667 115.778C317.075 118.235 323.662 116.38 327.944 114.833C335.507 112.102 342.564 109.246 350.333 107C351.136 106.768 360.096 102.843 360.778 104.889C361.414 106.797 360.466 109.107 361.611 110.889C364.281 115.043 377.356 106.136 380.556 105.222C383.322 104.432 384.585 106.511 385 109C385.71 113.258 407.15 110.745 410.333 110.5C411.195 110.434 416.741 109.186 417.778 110.222C418.883 111.328 418.477 112.746 420.333 113.389C425.111 115.043 431.455 113.452 436.333 113.222C442.071 112.952 447.814 113 453.556 113C459.011 113 463.968 110.965 469.333 110.222C473.772 109.608 473.353 113.03 476.556 113.944C483.323 115.878 494.046 114.358 500.833 113C508.777 111.411 503.46 116.879 507.222 117C517.156 117.32 526.893 117.099 536.444 114C579.978 99.8747 619.653 73.5175 652.333 41.8333C661.327 33.1134 671.036 24.2972 670.333 10.7778C670.141 7.06971 667.825 1.85938 663.222 2.27778C660.892 2.48961 657.665 10.0822 656.667 11.5556C650.586 20.5259 646.197 29.2543 642.5 39.4444C640.728 44.3291 625.743 78.151 637.556 77.1667C642.945 76.7175 657.674 67.8522 655.556 78.4444C654.854 81.9519 646.707 97.9978 655.111 96.7778C660.436 96.0048 675.203 86.2282 679.778 89.2778C682.3 90.9595 681.653 96.1469 684.5 98.5556C688.694 102.104 692.351 99.8783 697.222 101.222C700.437 102.109 701.689 104.789 705.222 105.556C711.202 106.852 718.363 107.04 724.389 106.222C728.4 105.677 734.687 101.352 738.556 102.056C742.843 102.835 747.352 109.023 751.056 111.444C757.048 115.363 760.284 112.639 766.222 110.444C770.484 108.869 773.87 116.251 778.556 116.778C784.394 117.435 790.473 117 796.333 117C799.365 117 804.876 118.034 807.833 116.556C807.96 116.492 808.443 118.301 808.667 118.667C810.181 121.15 811.725 122.182 814.611 122.444C820.309 122.962 826.33 119.478 831.333 117.222C845.315 110.92 859.694 102.491 871.333 92.4444C887.364 78.6071 900.547 55.7036 907.889 35.8889C909.146 32.4958 914.796 20.332 909.833 17.2778C904.905 14.2448 899.243 23.2065 897 26.1667C884.285 42.9503 871.965 59.7507 866.778 80.5C865.319 86.3363 863.84 97.266 871 100.556C877.185 103.398 889.186 100.311 895.222 99.2222C905.416 97.3827 898.2 100.322 903.5 104.444C907.644 107.668 918.192 99.6982 922.889 99.1111C928.044 98.4667 928.399 104.917 933 103C942.423 99.0739 943.954 111.113 952.556 112.5C963.906 114.331 973.378 120 985.333 120C996.199 120 1006.25 121.348 1017.06 121.056C1045.13 120.297 1073.85 118.462 1101.61 114.056C1105.36 113.461 1108.88 112.079 1112 110" stroke="white" stroke-width="3" stroke-linecap="round"/>
</svg>
