<svg width="9877" height="572" viewBox="0 0 9877 572" fill="none" xmlns="http://www.w3.org/2000/svg">
<path d="M2.34961 126.101C25.9304 123.743 44.0389 103.539 64.4387 92.9873C105.908 71.5375 155.277 51.271 192.756 23.6544C235.736 -8.01509 319.331 -1.91507 366.088 19.5152C447.566 56.8593 525.952 86.9585 602.544 133.345C687.991 185.094 785.291 208.41 885.05 209.922C943.171 210.802 971.605 180.592 1018.02 150.42C1063.81 120.659 1132.56 116.432 1183.59 98.6788C1221.31 85.5613 1260.64 70.2213 1301.05 70.2213C1372.19 70.2213 1459.58 46.362 1528.71 65.5646C1599.08 85.1125 1661.98 120.466 1729.46 149.385C1847.89 200.139 1954.19 254.801 2088.54 219.235C2133.12 207.436 2173.88 163.977 2214.27 140.589C2256.97 115.868 2295.66 107.475 2344.66 107.475C2390.75 107.475 2456.56 93.7598 2500.4 109.544C2531.02 120.565 2565.02 139.991 2595.6 154.042C2645.91 177.157 2725 198.173 2779.8 200.608C2818.02 202.307 2879.06 224.011 2917.43 207.852C2965.37 187.669 3046.42 181.982 3100.08 181.982C3156.11 181.982 3186.83 148.169 3247.54 154.559C3357.52 166.136 3442.2 265.802 3548.67 265.802C3587.97 265.802 3630.03 269.896 3669.23 265.285C3694.92 262.263 3722.78 261.408 3741.67 242.519C3751.08 233.102 3765.9 222.213 3779.44 219.753C3836.21 209.43 3962.22 180.799 3997.78 243.036C4031.82 302.607 4108.37 305.269 4163.35 275.115C4209.58 249.764 4279.26 273.976 4321.68 235.792C4353.5 207.159 4427.8 214.082 4465.52 221.305C4506.16 229.087 4553.26 264.122 4589.7 284.946C4640.96 314.236 4683.73 347.473 4733.02 377.045C4775.47 402.512 4821.21 409.203 4869.62 414.298C4924.4 420.065 4941.84 393.022 4980.34 363.075C5019.39 332.702 5094.52 336.141 5141.26 325.821C5187.56 315.6 5235.18 293.742 5283.03 293.742C5298.46 293.742 5346.72 296.983 5357.54 307.195C5398.95 346.309 5446.44 416.934 5502.41 432.925C5698.82 489.043 5888.82 372.176 6088.12 377.562C6161.43 379.544 6219.01 428.546 6283.7 452.069C6297.62 457.131 6294.24 477.352 6303.88 479.492C6338.96 487.288 6370.86 504.479 6406.32 511.571C6534.4 537.186 6622.06 482.94 6735.91 442.756C6758.56 434.764 6775.83 419.595 6797.48 410.677C6835.91 394.855 6884.85 393.22 6925.28 382.736C6954.69 375.114 6992.86 372.322 7020.49 387.393C7036.59 396.175 7039.75 411.449 7057.22 415.333C7090.54 422.737 7126.22 451.805 7160.71 462.417C7219.33 480.457 7279.24 481.128 7339.21 493.979C7368.62 500.282 7394.96 511.264 7425.62 507.432C7459.3 503.222 7479.08 459.745 7508.92 444.826C7552.05 423.261 7613.67 419.262 7660.01 412.746C7697.18 407.519 7737.95 398.37 7774.87 410.677C7824.29 427.15 7859.23 463.789 7906.29 485.183C8081.33 564.748 8209.02 586.974 8394.73 556.586C8425.53 551.545 8457.86 560.308 8486.83 547.273C8507.04 538.178 8526.59 525.595 8547.88 519.332C8577.24 510.696 8651.33 483.819 8665.85 461.383C8680.62 438.551 8723.76 422.077 8747.6 410.159C8773.33 397.293 8793.42 375.29 8821.59 368.249C8832.51 365.519 8860.98 352.823 8868.16 344.448C8886.01 323.618 8943.08 324.164 8971.64 317.025C9046.89 298.214 9122.62 303.055 9199.82 303.055C9356.21 303.055 9502.08 349.622 9658.24 349.622C9701.62 349.622 9745.27 351.171 9788.63 349.622C9805.41 349.023 9879.12 326.289 9874.52 321.682" stroke="white" stroke-width="3" stroke-linecap="round"/>
</svg>
