<svg width="1089" height="427" viewBox="0 0 1089 427" fill="none" xmlns="http://www.w3.org/2000/svg">
<path d="M2 156C2.35203 158.816 11.2268 158 12.6667 158C24.3223 158 33.66 156.173 44.6667 152.333C51.3774 149.992 57.2155 146.127 64.1111 144.222C68.5869 142.986 73.3572 141.903 77.0556 138.944C87.3993 130.669 101.584 128.806 112.222 120.556C124.128 111.322 135.327 99.2506 144.333 87.1111C152.226 76.4732 162.797 68.343 172.222 59.2222C188.213 43.7469 208.866 37.1898 227.444 25.6667C238.077 19.0718 249.659 9.36734 262.111 6.55556C272.509 4.20765 285.071 6 295.611 6C310.979 6 326.664 5.99296 341.889 8.44444C358.349 11.0948 374.745 19.0263 388.944 27.5C399.584 33.8493 410.346 42.6469 416.222 53.8889C424.886 70.4623 432.738 101.937 416.444 116.444C409.031 123.046 396.524 129.4 386.444 129.944C377.782 130.413 369.542 128.834 361.333 126.222C356.899 124.811 351.475 124.051 348.111 120.5C341.615 113.643 339.031 102.88 337.444 93.8889C335.449 82.579 339.343 67.7763 344.111 57.4444C351.173 42.1431 367.324 37.3614 382 31.8889C399.255 25.4547 414.609 20.3132 433.167 21.0556C440.946 21.3667 448.626 24.1412 456.111 26.1111C468.143 29.2774 480.188 34.183 491 40.3333C504.234 47.8616 512.242 55.8788 520.444 68.5556C538.314 96.1728 545.338 127.457 543.889 160.056C543.432 170.344 541.713 180.724 538.833 190.611C534.929 204.015 530.239 218.673 523.889 231.111C513.739 250.992 499.768 269.698 484.444 285.889C473.554 297.396 458.234 303.937 445.444 313C432.937 321.864 419.855 330.111 408.111 340C396.43 349.837 394.214 362.36 400.556 375.889C403.37 381.892 412.136 388.681 417.667 392C436.386 403.232 456.903 412.384 478.444 416.222C510.087 421.86 541.649 426.459 573.889 424.444C601.402 422.725 631.111 419.434 657 409.444C674.263 402.783 691.528 391.186 706.944 381.056C719.022 373.119 728.463 365.363 736.778 353.444C761.755 317.644 781 276.34 781 232C781 217.866 780.965 205.719 776.5 192.111C772.154 178.867 764.673 164.818 756.111 153.778C752.312 148.879 747.473 148.444 741.667 149.056C738.125 149.428 734.926 154.53 732.778 156.778C720.322 169.813 717.321 188.305 721.444 205.667C723.611 214.79 728.261 225.15 734.944 231.833C745.8 242.689 756.674 248.684 770.611 255.167C790.512 264.423 810.912 270 833.167 270C838.032 270 843.267 270.562 848.056 269.444C854.499 267.941 860.607 264.327 866.778 262C877.389 257.998 888.275 256.132 897.389 249C899.864 247.063 900.979 244.206 903.667 242.444C908.288 239.417 913.146 236.927 916.556 232.444C921.847 225.487 927.78 216.286 929 207.444C931.51 189.244 930 170.178 930 151.833C930 140.704 930 129.574 930 118.444C930 108.937 929.694 99.8516 935.111 91.5C947.011 73.1541 961.166 57.3336 979.833 45.6667C988.718 40.1135 999.271 34.8876 1009.22 31.7778C1018.35 28.9246 1029.5 26.0369 1037.5 20.5C1045.1 15.2391 1056.76 13.8646 1065.22 10.2222C1072.42 7.12391 1080.07 5.46654 1087 2" stroke="white" stroke-width="3" stroke-linecap="round"/>
</svg>
