<svg width="212" height="204" viewBox="0 0 212 204" fill="none" xmlns="http://www.w3.org/2000/svg">
<path d="M14.0212 143.209C14.0212 140.344 12.2792 137.802 10.5212 135.653C8.5165 133.203 9.02123 130.167 9.02123 127.209C9.02123 124.081 8.73769 121.683 8.07679 118.709C7.66999 116.878 6.12311 115.043 6.02123 113.209C5.70828 107.576 5.02123 102.385 5.02123 96.6533C5.02123 93.8562 4.7106 91.9654 6.46568 89.7089C7.41386 88.4898 9.02123 84.2137 9.02123 82.7645C9.02123 79.3594 13.0212 78.214 13.0212 74.4311C13.0212 72.532 13.5501 69.6077 14.0768 67.7645C14.6212 65.8591 15.0212 64.5114 15.0212 62.2089C15.0212 59.1307 16.8784 59.7793 17.0212 57.2089C17.1473 54.9404 20.4993 54.3078 21.0768 51.7089C21.4908 49.846 24.8038 48.0002 25.799 46.2089C27.4928 43.1601 32.5762 39.9235 35.5768 38.2089C38.5484 36.5108 43.7164 32.4852 45.2435 29.4311C46.2217 27.4746 50.4578 23.6119 52.5212 23.1533C53.7529 22.8796 57.7488 19.9319 58.799 18.9867C61.1642 16.858 64.1317 15.8503 66.799 14.2089C71.4164 11.3674 78.0491 8.52477 83.5768 8.2089C92.0494 7.72475 100.458 4.2089 108.91 4.2089C117.102 4.2089 125.351 3.33777 133.521 5.15334C136.054 5.71623 138.535 7.07079 141.021 7.2089C143.78 7.36217 145.901 10.9595 148.021 11.2089C150.918 11.5497 155.061 16.0229 157.243 17.9867C160.204 20.6514 166.265 19.2639 169.021 22.7089C169.853 23.7483 174.503 25.6322 176.021 26.4311C177.071 26.9838 180.604 29.4996 180.966 30.7645C182.074 34.6426 184.847 37.2303 186.132 40.7645C187.024 43.2168 189.612 45.5377 190.799 48.2089C191.836 50.5427 193.092 52.0977 194.021 54.6533C194.496 55.9581 195.643 56.6509 196.466 57.7089C197.249 58.716 196.541 60.108 197.243 60.9867C198.769 62.8934 199.755 66.333 200.799 68.6533C201.785 70.8436 200.316 73.5401 201.521 75.7089C202.495 77.4621 202.8 79.321 203.799 81.2089C205.381 84.1964 206.021 89.8039 206.021 93.2089C206.021 103.028 207.021 112.241 207.021 121.987C207.021 125.69 208.539 133.376 206.021 136.209C203.353 139.211 201.773 144.077 200.966 147.709C200.025 151.942 195.376 156.26 193.077 159.709C190.981 162.853 186.612 166.146 185.243 169.431C183.918 172.613 179.566 176.515 177.021 179.209C174.052 182.352 171.345 187.055 167.577 189.209C159.939 193.573 151.896 199.209 143.021 199.209" stroke="#FF0000" stroke-width="8" stroke-linecap="round"/>
</svg>
