<svg width="1152" height="158" viewBox="0 0 1152 158" fill="none" xmlns="http://www.w3.org/2000/svg">
<path d="M2 156C8.24135 155.307 15.2304 152.328 21.4444 151C30.1222 149.146 38.8878 147.825 47.5556 146C61.0144 143.167 75.2397 145.659 88.5556 142.222C116.895 134.909 145.657 137.992 174.444 135.778C180.018 135.349 185.434 132.937 191 132C199.303 130.602 207.563 129.193 215.889 127.944C221.186 127.15 224.754 124.228 230.278 124.056C236.262 123.869 244.449 125.64 250.222 123.778C259.486 120.79 266.936 119.023 270.444 109.5C273.33 101.669 264.437 100.543 259.333 102.222C253.423 104.166 246.955 107.463 250.944 114.444C255.077 121.676 262.504 120 270 120C283.637 120 297.356 123 311.167 123C332.914 123 354.818 120.609 376.444 120C385.517 119.744 394.536 118.081 403.444 116.444C411.157 115.028 418.868 114.744 426.667 113.5C436.343 111.956 445.697 111.838 455.5 112.056C470.416 112.387 486.656 111.047 501.333 113.778C504.24 114.318 506.333 115.442 509.111 116.667C515.996 119.702 523.436 121.123 530.722 122.944C533.946 123.75 548.406 131.496 540.167 133.5C528.271 136.393 495.669 136.467 501.556 115.444C503.066 110.049 510.954 100.827 515.667 98C525.584 92.0496 536.837 88.1723 547.556 84C555.079 81.0715 561.772 76.4204 569.667 74.5C579.98 71.9913 590.663 71.3208 601 68.9444C613.53 66.0639 626.891 64.928 639.111 61C646.516 58.6197 654.534 58.7342 662.222 57.7778C675.062 56.1805 687.933 54.2873 700.722 52.3333C730.653 47.7606 760.575 42.9782 790.444 38C804.834 35.6018 823.673 34.5119 834.167 22.1667C837.778 17.9185 840 15.0448 840 9.22222C840 6.13982 833.478 -0.398017 832 3.66666C822.23 30.5339 868.777 31.6642 884.778 33.0556C904.174 34.7422 923.757 34.6904 943.222 35.7778C969.585 37.2506 996.028 39.7068 1021.67 46.0556C1036.37 49.6961 1051.31 51.8343 1065.89 56C1075.96 58.8774 1085.21 63.5915 1095.44 66.2222C1105.72 68.8638 1114.97 73.1796 1125.67 74.4444C1133.74 75.3998 1141.87 76 1150 76" stroke="white" stroke-width="3" stroke-linecap="round"/>
</svg>
